<svg width="169" height="16" viewBox="0 0 169 16" fill="none" xmlns="http://www.w3.org/2000/svg">
<path d="M-0.00012207 7.90725C-0.00012207 6.92268 0.183075 6.00591 0.54947 5.15695C0.915865 4.30208 1.4451 3.56218 2.13718 2.93725C2.83507 2.30642 3.68418 1.81119 4.6845 1.45156C5.69063 1.09193 6.82761 0.912109 8.09546 0.912109C9.20627 0.912109 10.224 1.02707 11.1487 1.257C12.0793 1.48104 12.9429 1.82593 13.7397 2.29168L12.466 4.4141C12.2276 4.25492 11.9513 4.11342 11.6373 3.98962C11.329 3.86581 10.9975 3.76263 10.6428 3.6801C10.2938 3.59166 9.93034 3.52386 9.55231 3.4767C9.1801 3.42953 8.8108 3.40595 8.4444 3.40595C7.5604 3.40595 6.77236 3.51797 6.08028 3.742C5.38821 3.96014 4.80372 4.26966 4.32682 4.67056C3.85575 5.06556 3.49517 5.54016 3.24509 6.09435C3.00082 6.64264 2.87869 7.24694 2.87869 7.90725C2.87869 8.59114 3.00664 9.21902 3.26254 9.79089C3.51843 10.3628 3.88773 10.858 4.37044 11.2766C4.85897 11.6893 5.45218 12.0135 6.15007 12.2494C6.85378 12.4793 7.64764 12.5943 8.53164 12.5943C8.93293 12.5943 9.33131 12.5648 9.72678 12.5058C10.1223 12.4469 10.5032 12.3673 10.8696 12.267C11.2418 12.1609 11.5995 12.0371 11.9426 11.8956C12.2857 11.7482 12.6056 11.5891 12.9022 11.4181L14.1759 13.5405C13.4314 14.0239 12.5707 14.4042 11.5937 14.6813C10.6166 14.9525 9.57848 15.0881 8.4793 15.0881C7.07769 15.0881 5.84765 14.9053 4.78918 14.5398C3.73071 14.1684 2.84671 13.6614 2.13718 13.0187C1.42765 12.3702 0.892601 11.6097 0.532023 10.7371C0.177259 9.85869 -0.00012207 8.91539 -0.00012207 7.90725Z" fill="url(#paint0_linear_1539_4132)"/>
<path d="M16.1251 0.912109H19.2647V7.71092C19.2647 8.35617 19.3286 8.94635 19.4563 9.48144C19.584 10.0087 19.8004 10.4611 20.1055 10.8388C20.4176 11.2166 20.8292 11.5116 21.34 11.7241C21.858 11.9287 22.5001 12.031 23.2663 12.031C23.6282 12.031 23.9936 11.9877 24.3625 11.9012C24.7386 11.8146 25.0969 11.6966 25.4374 11.547C25.778 11.3897 26.0937 11.2047 26.3846 10.9923C26.6826 10.7798 26.938 10.5477 27.1509 10.2959V0.912109H30.3011V14.852H27.1509V13.6599C26.3775 14.1714 25.6006 14.5373 24.8202 14.7576C24.0397 14.9779 23.2983 15.0881 22.5958 15.0881C21.4464 15.0881 20.4602 14.9346 19.6372 14.6278C18.8213 14.3209 18.1508 13.8763 17.6257 13.294C17.1078 12.7038 16.7282 11.9838 16.487 11.1339C16.2457 10.2762 16.1251 9.30045 16.1251 8.20666V0.912109Z" fill="url(#paint1_linear_1539_4132)"/>
<path d="M33.5923 10.645C34.4312 11.2019 35.3539 11.6118 36.3604 11.8747C37.367 12.1377 38.3981 12.2691 39.4536 12.2691C40.1666 12.2691 40.7607 12.215 41.2361 12.1067C41.7114 11.9985 42.0923 11.8592 42.3789 11.6891C42.6655 11.519 42.8683 11.3256 42.9871 11.1091C43.1059 10.8925 43.1653 10.6721 43.1653 10.4478C43.1653 10.123 43.036 9.8446 42.7774 9.61259C42.5257 9.38058 42.1063 9.26457 41.5192 9.26457C41.2465 9.26457 40.953 9.28391 40.6384 9.32257C40.3238 9.36124 39.9918 9.40378 39.6423 9.45018C39.2998 9.48885 38.9398 9.52752 38.5623 9.56619C38.1919 9.60486 37.8144 9.62419 37.4299 9.62419C36.5911 9.62419 35.8746 9.52365 35.2805 9.32257C34.6933 9.1215 34.2145 8.84695 33.844 8.49893C33.4735 8.15091 33.2044 7.74102 33.0366 7.26926C32.8689 6.78977 32.785 6.27547 32.785 5.72638C32.785 5.03034 32.9318 4.38844 33.2254 3.80067C33.519 3.2129 33.9384 2.70634 34.4836 2.28099C35.0288 1.84789 35.6859 1.51148 36.4548 1.27173C37.2307 1.03198 38.094 0.912109 39.0447 0.912109C39.5409 0.912109 40.0582 0.946911 40.5965 1.01652C41.1417 1.07839 41.6764 1.16346 42.2007 1.27173C42.725 1.38 43.2282 1.50761 43.7106 1.65455C44.1929 1.79376 44.6193 1.94457 44.9898 2.10698L44.0146 4.77512C43.2247 4.45031 42.4349 4.19509 41.645 4.00948C40.8621 3.81614 40.0547 3.71946 39.2229 3.71946C38.6427 3.71946 38.1499 3.76973 37.7445 3.87027C37.346 3.96308 37.021 4.09069 36.7694 4.25309C36.5177 4.40777 36.3325 4.58951 36.2136 4.79832C36.1018 4.9994 36.0459 5.21208 36.0459 5.43636C36.0459 5.59877 36.0738 5.74571 36.1298 5.87718C36.1927 6.00866 36.2905 6.12466 36.4234 6.2252C36.5632 6.31801 36.7414 6.39148 36.9581 6.44562C37.1818 6.49202 37.4544 6.51522 37.7759 6.51522C38.0695 6.51522 38.3806 6.49588 38.7091 6.45722C39.0377 6.41855 39.3802 6.37988 39.7367 6.34121C40.0932 6.29481 40.4602 6.25227 40.8376 6.2136C41.2221 6.17493 41.6135 6.1556 42.012 6.1556C42.7529 6.1556 43.3995 6.25227 43.9517 6.44562C44.5109 6.63896 44.9723 6.90964 45.3358 7.25766C45.6993 7.60568 45.9719 8.01557 46.1536 8.48733C46.3354 8.95909 46.4262 9.47338 46.4262 10.0302C46.4262 10.7495 46.2759 11.4184 45.9754 12.0371C45.6748 12.6558 45.2274 13.1933 44.6333 13.6496C44.0391 14.0982 43.2981 14.4501 42.4104 14.7053C41.5296 14.9605 40.5091 15.0881 39.3487 15.0881C38.6357 15.0881 37.9472 15.0378 37.2831 14.9373C36.6191 14.8445 35.9865 14.7169 35.3853 14.5545C34.7842 14.3843 34.218 14.1871 33.6867 13.9628C33.1625 13.7386 32.6836 13.4988 32.2502 13.2436L33.5923 10.645Z" fill="url(#paint2_linear_1539_4132)"/>
<path d="M51.2913 6.09738H48.3755V3.80878H51.2913V0.0253906H54.3197V3.80878H57.2355V6.09738H54.3197V15.9734H51.2913V6.09738Z" fill="url(#paint3_linear_1539_4132)"/>
<path d="M59.1847 8.0001C59.1847 7.01791 59.3489 6.0976 59.6772 5.23915C60.0119 4.3807 60.4851 3.63053 61.0967 2.98862C61.7147 2.34672 62.4583 1.84016 63.3274 1.46894C64.2029 1.09772 65.1847 0.912109 66.2727 0.912109C67.3607 0.912109 68.3392 1.09772 69.2083 1.46894C70.0838 1.84016 70.8274 2.34672 71.439 2.98862C72.057 3.63053 72.5302 4.3807 72.8585 5.23915C73.1933 6.0976 73.3607 7.01791 73.3607 8.0001C73.3607 8.98229 73.1933 9.90261 72.8585 10.7611C72.5302 11.6195 72.057 12.3697 71.439 13.0116C70.8274 13.6535 70.0838 14.16 69.2083 14.5313C68.3392 14.9025 67.3607 15.0881 66.2727 15.0881C65.1847 15.0881 64.2029 14.9025 63.3274 14.5313C62.4583 14.16 61.7147 13.6535 61.0967 13.0116C60.4851 12.3697 60.0119 11.6195 59.6772 10.7611C59.3489 9.90261 59.1847 8.98229 59.1847 8.0001ZM62.1879 8.0001C62.1879 8.5492 62.278 9.07123 62.4583 9.56619C62.645 10.0534 62.9122 10.4865 63.2598 10.8655C63.6139 11.2367 64.042 11.5344 64.5441 11.7587C65.0527 11.9753 65.6289 12.0835 66.2727 12.0835C66.9165 12.0835 67.4894 11.9753 67.9916 11.7587C68.5002 11.5344 68.9283 11.2367 69.2759 10.8655C69.63 10.4865 69.8972 10.0534 70.0774 9.56619C70.2641 9.07123 70.3575 8.5492 70.3575 8.0001C70.3575 7.451 70.2641 6.92898 70.0774 6.43401C69.8972 5.93905 69.63 5.50596 69.2759 5.13474C68.9283 4.75579 68.5002 4.45804 67.9916 4.24149C67.4894 4.01721 66.9165 3.90508 66.2727 3.90508C65.6289 3.90508 65.0527 4.01721 64.5441 4.24149C64.042 4.45804 63.6139 4.75579 63.2598 5.13474C62.9122 5.50596 62.645 5.93905 62.4583 6.43401C62.278 6.92898 62.1879 7.451 62.1879 8.0001Z" fill="url(#paint4_linear_1539_4132)"/>
<path d="M63.6721 8.06673C63.6721 7.68588 63.7358 7.32903 63.8631 6.99617C63.9929 6.66331 64.1764 6.37243 64.4135 6.12353C64.6531 5.87463 64.9415 5.67821 65.2785 5.53427C65.6179 5.39033 65.9986 5.31836 66.4205 5.31836C66.8424 5.31836 67.2218 5.39033 67.5588 5.53427C67.8983 5.67821 68.1866 5.87463 68.4237 6.12353C68.6634 6.37243 68.8468 6.66331 68.9741 6.99617C69.1039 7.32903 69.1689 7.68588 69.1689 8.06673C69.1689 8.44757 69.1039 8.80442 68.9741 9.13729C68.8468 9.47015 68.6634 9.76103 68.4237 10.0099C68.1866 10.2588 67.8983 10.4552 67.5588 10.5992C67.2218 10.7431 66.8424 10.8151 66.4205 10.8151C65.9986 10.8151 65.6179 10.7431 65.2785 10.5992C64.9415 10.4552 64.6531 10.2588 64.4135 10.0099C64.1764 9.76103 63.9929 9.47015 63.8631 9.13729C63.7358 8.80442 63.6721 8.44757 63.6721 8.06673ZM64.8366 8.06673C64.8366 8.27964 64.8716 8.48206 64.9415 8.67398C65.0139 8.8629 65.1174 9.03083 65.2522 9.17777C65.3895 9.32171 65.5555 9.43716 65.7502 9.52413C65.9474 9.60809 66.1709 9.65008 66.4205 9.65008C66.6701 9.65008 66.8923 9.60809 67.087 9.52413C67.2842 9.43716 67.4502 9.32171 67.585 9.17777C67.7223 9.03083 67.8259 8.8629 67.8958 8.67398C67.9682 8.48206 68.0044 8.27964 68.0044 8.06673C68.0044 7.85382 67.9682 7.6514 67.8958 7.45948C67.8259 7.26756 67.7223 7.09963 67.585 6.95569C67.4502 6.80875 67.2842 6.69329 67.087 6.60933C66.8923 6.52236 66.6701 6.47888 66.4205 6.47888C66.1709 6.47888 65.9474 6.52236 65.7502 6.60933C65.5555 6.69329 65.3895 6.80875 65.2522 6.95569C65.1174 7.09963 65.0139 7.26756 64.9415 7.45948C64.8716 7.6514 64.8366 7.85382 64.8366 8.06673Z" fill="url(#paint5_linear_1539_4132)"/>
<path d="M76.6519 10.645C77.4907 11.2019 78.4134 11.6118 79.42 11.8747C80.4266 12.1377 81.4576 12.2691 82.5131 12.2691C83.2261 12.2691 83.8203 12.215 84.2956 12.1067C84.771 11.9985 85.1519 11.8592 85.4385 11.6891C85.7251 11.519 85.9278 11.3256 86.0467 11.1091C86.1655 10.8925 86.2249 10.6721 86.2249 10.4478C86.2249 10.123 86.0956 9.8446 85.837 9.61259C85.5853 9.38058 85.1659 9.26457 84.5787 9.26457C84.3061 9.26457 84.0125 9.28391 83.698 9.32257C83.3834 9.36124 83.0514 9.40378 82.7019 9.45018C82.3594 9.48885 81.9994 9.52752 81.6219 9.56619C81.2514 9.60486 80.874 9.62419 80.4895 9.62419C79.6507 9.62419 78.9342 9.52365 78.34 9.32257C77.7529 9.1215 77.274 8.84695 76.9036 8.49893C76.5331 8.15091 76.264 7.74102 76.0962 7.26926C75.9284 6.78977 75.8446 6.27547 75.8446 5.72638C75.8446 5.03034 75.9914 4.38844 76.2849 3.80067C76.5785 3.2129 76.9979 2.70634 77.5432 2.28099C78.0884 1.84789 78.7455 1.51148 79.5144 1.27173C80.2903 1.03198 81.1536 0.912109 82.1042 0.912109C82.6005 0.912109 83.1178 0.946911 83.656 1.01652C84.2013 1.07839 84.736 1.16346 85.2603 1.27173C85.7845 1.38 86.2878 1.50761 86.7701 1.65455C87.2525 1.79376 87.6788 1.94457 88.0493 2.10698L87.0742 4.77512C86.2843 4.45031 85.4944 4.19509 84.7045 4.00948C83.9217 3.81614 83.1143 3.71946 82.2825 3.71946C81.7023 3.71946 81.2095 3.76973 80.8041 3.87027C80.4056 3.96308 80.0806 4.09069 79.8289 4.25309C79.5773 4.40777 79.3921 4.58951 79.2732 4.79832C79.1614 4.9994 79.1055 5.21208 79.1055 5.43636C79.1055 5.59877 79.1334 5.74571 79.1893 5.87718C79.2522 6.00866 79.3501 6.12466 79.4829 6.2252C79.6227 6.31801 79.801 6.39148 80.0177 6.44562C80.2414 6.49202 80.514 6.51522 80.8355 6.51522C81.1291 6.51522 81.4402 6.49588 81.7687 6.45722C82.0972 6.41855 82.4397 6.37988 82.7962 6.34121C83.1527 6.29481 83.5197 6.25227 83.8972 6.2136C84.2816 6.17493 84.6731 6.1556 85.0715 6.1556C85.8125 6.1556 86.4591 6.25227 87.0113 6.44562C87.5705 6.63896 88.0319 6.90964 88.3953 7.25766C88.7588 7.60568 89.0314 8.01557 89.2132 8.48733C89.3949 8.95909 89.4858 9.47338 89.4858 10.0302C89.4858 10.7495 89.3355 11.4184 89.0349 12.0371C88.7344 12.6558 88.287 13.1933 87.6928 13.6496C87.0987 14.0982 86.3577 14.4501 85.47 14.7053C84.5892 14.9605 83.5687 15.0881 82.4083 15.0881C81.6953 15.0881 81.0068 15.0378 80.3427 14.9373C79.6786 14.8445 79.046 14.7169 78.4449 14.5545C77.8437 14.3843 77.2775 14.1871 76.7463 13.9628C76.222 13.7386 75.7432 13.4988 75.3098 13.2436L76.6519 10.645Z" fill="url(#paint6_linear_1539_4132)"/>
<path d="M97.1975 15.2253V12.7382H100.877C101.809 12.7382 102.624 12.5463 103.323 12.1626C104.022 11.7652 104.563 11.2103 104.947 10.4977C105.344 9.78515 105.543 8.94242 105.543 7.9695C105.543 7.02399 105.344 6.2018 104.947 5.50295C104.549 4.79039 104.001 4.24226 103.302 3.85858C102.603 3.46119 101.795 3.2625 100.877 3.2625H97.1358V0.775391H100.918C101.987 0.775391 102.973 0.95353 103.878 1.30981C104.796 1.66609 105.591 2.1731 106.262 2.83085C106.947 3.47489 107.475 4.23541 107.845 5.11241C108.228 5.98941 108.42 6.94862 108.42 7.99005C108.42 9.03149 108.228 9.99755 107.845 10.8883C107.475 11.7652 106.954 12.5326 106.283 13.1904C105.611 13.8344 104.816 14.3346 103.898 14.6909C102.994 15.0471 102.014 15.2253 100.959 15.2253H97.1975ZM95.2859 15.2253V0.775391H98.0813V15.2253H95.2859Z" fill="url(#paint7_linear_1539_4132)"/>
<path d="M110.093 15.3057V5.37785H113.461V15.3057H110.093ZM111.777 3.77459C111.232 3.77459 110.782 3.63071 110.424 3.34295C110.067 3.04148 109.888 2.6715 109.888 2.233C109.888 1.80821 110.067 1.44507 110.424 1.14361C110.782 0.84214 111.232 0.691406 111.777 0.691406C112.338 0.691406 112.789 0.84214 113.129 1.14361C113.487 1.44507 113.665 1.80821 113.665 2.233C113.665 2.6715 113.487 3.04148 113.129 3.34295C112.789 3.63071 112.338 3.77459 111.777 3.77459Z" fill="url(#paint8_linear_1539_4132)"/>
<path d="M115.868 15.3059V5.01769H118.658V15.3059H115.868ZM118.658 9.61862L117.572 8.8944C117.699 7.63057 118.069 6.63654 118.679 5.91232C119.29 5.1739 120.17 4.80469 121.321 4.80469C121.818 4.80469 122.265 4.88989 122.662 5.06029C123.06 5.2165 123.422 5.47921 123.749 5.84842L122.002 7.85067C121.846 7.68027 121.654 7.55246 121.427 7.46726C121.214 7.38206 120.965 7.33946 120.681 7.33946C120.085 7.33946 119.595 7.53116 119.212 7.91458C118.843 8.28379 118.658 8.8518 118.658 9.61862Z" fill="url(#paint9_linear_1539_4132)"/>
<path d="M129.345 15.3052C128.267 15.3052 127.31 15.0782 126.473 14.6242C125.636 14.1561 124.969 13.5177 124.472 12.709C123.99 11.9004 123.749 10.9783 123.749 9.94263C123.749 8.92119 123.983 8.01324 124.451 7.21879C124.933 6.41015 125.586 5.77176 126.409 5.3036C127.232 4.82125 128.147 4.58008 129.154 4.58008C130.147 4.58008 131.019 4.80706 131.771 5.26104C132.537 5.70082 133.133 6.31085 133.559 7.09111C133.999 7.85719 134.219 8.72967 134.219 9.70855C134.219 9.89297 134.204 10.0845 134.176 10.2831C134.162 10.4675 134.126 10.6803 134.07 10.9215L125.43 10.9428V8.85735L132.771 8.83607L131.644 9.70855C131.615 9.09852 131.502 8.5878 131.303 8.17639C131.119 7.76498 130.842 7.45287 130.473 7.24007C130.119 7.01309 129.679 6.89959 129.154 6.89959C128.601 6.89959 128.118 7.02727 127.707 7.28263C127.295 7.5238 126.976 7.87138 126.749 8.32535C126.536 8.76514 126.43 9.29004 126.43 9.90007C126.43 10.5243 126.544 11.0705 126.771 11.5386C127.012 11.9926 127.352 12.3473 127.792 12.6026C128.232 12.8438 128.742 12.9644 129.324 12.9644C129.849 12.9644 130.324 12.8793 130.75 12.709C131.175 12.5246 131.544 12.255 131.856 11.9004L133.495 13.5389C132.998 14.1206 132.388 14.5604 131.665 14.8583C130.956 15.1562 130.182 15.3052 129.345 15.3052Z" fill="url(#paint10_linear_1539_4132)"/>
<path d="M138.602 6.09738H135.687V3.80878H138.602V0.0253906H141.631V3.80878H144.547V6.09738H141.631V15.9734H138.602V6.09738Z" fill="url(#paint11_linear_1539_4132)"/>
<path d="M145.648 15.9739V5.68566H148.438V15.9739H145.648ZM148.438 10.2866L147.352 9.56237C147.48 8.29854 147.849 7.30451 148.459 6.58029C149.07 5.84187 149.95 5.47266 151.101 5.47266C151.598 5.47266 152.045 5.55786 152.443 5.72826C152.84 5.88447 153.202 6.14718 153.529 6.51639L151.782 8.51864C151.626 8.34824 151.434 8.22043 151.207 8.13523C150.994 8.05003 150.746 8.00743 150.462 8.00743C149.865 8.00743 149.375 8.19913 148.992 8.58254C148.623 8.95175 148.438 9.51977 148.438 10.2866Z" fill="url(#paint12_linear_1539_4132)"/>
<path d="M155.201 15.9737V6.04582H158.57V15.9737H155.201ZM156.886 4.44256C156.341 4.44256 155.89 4.29868 155.533 4.01092C155.176 3.70945 154.997 3.33947 154.997 2.90097C154.997 2.47617 155.176 2.11304 155.533 1.81158C155.89 1.51011 156.341 1.35938 156.886 1.35938C157.447 1.35938 157.898 1.51011 158.238 1.81158C158.595 2.11304 158.774 2.47617 158.774 2.90097C158.774 3.33947 158.595 3.70945 158.238 4.01092C157.898 4.29868 157.447 4.44256 156.886 4.44256Z" fill="url(#paint13_linear_1539_4132)"/>
<path d="M159.875 14.3747L165.332 7.27644H168.7L163.243 14.3747H159.875ZM159.875 15.9734V14.3747L162.092 13.5434H168.572V15.9734H159.875ZM160.259 8.10776V5.67773H168.7V7.27644L166.462 8.10776H160.259Z" fill="url(#paint14_linear_1539_4132)"/>
<defs>
<linearGradient id="paint0_linear_1539_4132" x1="-0.00012207" y1="8.0001" x2="14.1759" y2="8.0001" gradientUnits="userSpaceOnUse">
<stop stop-color="#19B1D2"/>
<stop offset="1" stop-color="#0094FF"/>
</linearGradient>
<linearGradient id="paint1_linear_1539_4132" x1="16.1251" y1="8.0001" x2="30.3011" y2="8.0001" gradientUnits="userSpaceOnUse">
<stop stop-color="#19B1D2"/>
<stop offset="1" stop-color="#0094FF"/>
</linearGradient>
<linearGradient id="paint2_linear_1539_4132" x1="32.2502" y1="8.0001" x2="46.4262" y2="8.0001" gradientUnits="userSpaceOnUse">
<stop stop-color="#19B1D2"/>
<stop offset="1" stop-color="#0094FF"/>
</linearGradient>
<linearGradient id="paint3_linear_1539_4132" x1="48.3755" y1="7.99938" x2="57.2355" y2="7.99938" gradientUnits="userSpaceOnUse">
<stop stop-color="#19B1D2"/>
<stop offset="1" stop-color="#0094FF"/>
</linearGradient>
<linearGradient id="paint4_linear_1539_4132" x1="59.1847" y1="8.0001" x2="73.3607" y2="8.0001" gradientUnits="userSpaceOnUse">
<stop stop-color="#19B1D2"/>
<stop offset="1" stop-color="#0094FF"/>
</linearGradient>
<linearGradient id="paint5_linear_1539_4132" x1="63.6721" y1="8.06673" x2="69.1689" y2="8.06673" gradientUnits="userSpaceOnUse">
<stop stop-color="#19B1D2"/>
<stop offset="1" stop-color="#0094FF"/>
</linearGradient>
<linearGradient id="paint6_linear_1539_4132" x1="75.3098" y1="8.0001" x2="89.4858" y2="8.0001" gradientUnits="userSpaceOnUse">
<stop stop-color="#19B1D2"/>
<stop offset="1" stop-color="#0094FF"/>
</linearGradient>
<linearGradient id="paint7_linear_1539_4132" x1="95.2859" y1="8.00033" x2="108.42" y2="8.00033" gradientUnits="userSpaceOnUse">
<stop stop-color="#19B1D2"/>
<stop offset="1" stop-color="#0094FF"/>
</linearGradient>
<linearGradient id="paint8_linear_1539_4132" x1="109.888" y1="7.99856" x2="113.665" y2="7.99856" gradientUnits="userSpaceOnUse">
<stop stop-color="#19B1D2"/>
<stop offset="1" stop-color="#0094FF"/>
</linearGradient>
<linearGradient id="paint9_linear_1539_4132" x1="115.868" y1="10.0553" x2="123.749" y2="10.0553" gradientUnits="userSpaceOnUse">
<stop stop-color="#19B1D2"/>
<stop offset="1" stop-color="#0094FF"/>
</linearGradient>
<linearGradient id="paint10_linear_1539_4132" x1="123.749" y1="9.94263" x2="134.219" y2="9.94263" gradientUnits="userSpaceOnUse">
<stop stop-color="#19B1D2"/>
<stop offset="1" stop-color="#0094FF"/>
</linearGradient>
<linearGradient id="paint11_linear_1539_4132" x1="135.687" y1="7.99938" x2="144.547" y2="7.99938" gradientUnits="userSpaceOnUse">
<stop stop-color="#19B1D2"/>
<stop offset="1" stop-color="#0094FF"/>
</linearGradient>
<linearGradient id="paint12_linear_1539_4132" x1="145.648" y1="10.7233" x2="153.529" y2="10.7233" gradientUnits="userSpaceOnUse">
<stop stop-color="#19B1D2"/>
<stop offset="1" stop-color="#0094FF"/>
</linearGradient>
<linearGradient id="paint13_linear_1539_4132" x1="154.997" y1="8.66653" x2="158.774" y2="8.66653" gradientUnits="userSpaceOnUse">
<stop stop-color="#19B1D2"/>
<stop offset="1" stop-color="#0094FF"/>
</linearGradient>
<linearGradient id="paint14_linear_1539_4132" x1="159.875" y1="10.8256" x2="168.7" y2="10.8256" gradientUnits="userSpaceOnUse">
<stop stop-color="#19B1D2"/>
<stop offset="1" stop-color="#0094FF"/>
</linearGradient>
</defs>
</svg>
