<svg width="32" height="32" viewBox="0 0 32 32" fill="none" xmlns="http://www.w3.org/2000/svg">
<path d="M6.12393 12.8417C6.76537 13.0555 7.26871 13.5589 7.48253 14.2003C7.70013 14.8531 8.62352 14.8531 8.84112 14.2003C9.05494 13.5589 9.55828 13.0555 10.1997 12.8417C10.8525 12.6241 10.8525 11.7007 10.1997 11.4831C9.55828 11.2693 9.05494 10.766 8.84112 10.1245C8.62352 9.4717 7.70013 9.4717 7.48253 10.1245C7.26871 10.766 6.76537 11.2693 6.12393 11.4831C5.47112 11.7007 5.47112 12.6241 6.12393 12.8417Z" fill="#EAFBFF"/>
<path fill-rule="evenodd" clip-rule="evenodd" d="M6.66671 5.33398C3.72119 5.33398 1.33337 7.7218 1.33337 10.6673V21.334C1.33337 24.2795 3.72119 26.6673 6.66671 26.6673H20C22.5233 26.6673 24.6373 24.915 25.1916 22.561L26.4 23.4673C28.158 24.7858 30.6667 23.5314 30.6667 21.334V10.6673C30.6667 8.46986 28.158 7.21551 26.4 8.53398L25.1916 9.44035C24.6373 7.08627 22.5233 5.33398 20 5.33398H6.66671ZM28 21.334L25.3334 19.334V12.6673L28 10.6673V21.334ZM4.00004 10.6673C4.00004 9.19456 5.19395 8.00065 6.66671 8.00065H20C21.4728 8.00065 22.6667 9.19456 22.6667 10.6673V21.334C22.6667 22.8067 21.4728 24.0007 20 24.0007H6.66671C5.19395 24.0007 4.00004 22.8067 4.00004 21.334V10.6673Z" fill="#EAFBFF"/>
</svg>
