<svg width="20" height="11" viewBox="0 0 20 11" fill="none" xmlns="http://www.w3.org/2000/svg">
<path d="M0.292893 6.20711C-0.097631 5.81658 -0.097631 5.18342 0.292893 4.79289L4.29289 0.792893C4.68342 0.402369 5.31658 0.402369 5.70711 0.792893C6.09763 1.18342 6.09763 1.81658 5.70711 2.20711L3.41421 4.5L19 4.5C19.5523 4.5 20 4.94772 20 5.5C20 6.05229 19.5523 6.5 19 6.5L3.41421 6.5L5.70711 8.79289C6.09763 9.18342 6.09763 9.81658 5.70711 10.2071C5.31658 10.5976 4.68342 10.5976 4.29289 10.2071L0.292893 6.20711Z" fill="url(#paint0_linear_1847_2186)"/>
<defs>
<linearGradient id="paint0_linear_1847_2186" x1="0" y1="5.5" x2="20" y2="5.5" gradientUnits="userSpaceOnUse">
<stop stop-color="#EAF9FF"/>
<stop offset="1" stop-color="#8E9A9A"/>
</linearGradient>
</defs>
</svg>
