<svg width="20" height="11" viewBox="0 0 20 11" fill="none" xmlns="http://www.w3.org/2000/svg">
<path d="M19.7071 6.20711C20.0976 5.81658 20.0976 5.18342 19.7071 4.79289L15.7071 0.792893C15.3166 0.402369 14.6834 0.402369 14.2929 0.792893C13.9024 1.18342 13.9024 1.81658 14.2929 2.20711L16.5858 4.5L1 4.5C0.447716 4.5 0 4.94772 0 5.5C0 6.05229 0.447716 6.5 1 6.5L16.5858 6.5L14.2929 8.79289C13.9024 9.18342 13.9024 9.81658 14.2929 10.2071C14.6834 10.5976 15.3166 10.5976 15.7071 10.2071L19.7071 6.20711Z" fill="url(#paint0_linear_3294_610)"/>
<defs>
<linearGradient id="paint0_linear_3294_610" x1="0" y1="5.5" x2="20" y2="5.5" gradientUnits="userSpaceOnUse">
<stop stop-color="#EAF9FF"/>
<stop offset="1" stop-color="#8E9A9A"/>
</linearGradient>
</defs>
</svg>
