<svg width="19" height="18" viewBox="0 0 19 18" fill="none" xmlns="http://www.w3.org/2000/svg">
<path d="M3.10109 0.515524C2.58039 -0.00517459 1.73617 -0.00517498 1.21548 0.515524C0.694776 1.03622 0.694776 1.88044 1.21548 2.40114L7.81514 9.0008L1.21548 15.6005C0.694776 16.1212 0.694776 16.9654 1.21548 17.4861C1.73617 18.0068 2.58039 18.0068 3.10109 17.4861L9.70076 10.8864L16.3004 17.4861C16.8211 18.0068 17.6653 18.0068 18.186 17.4861C18.7067 16.9654 18.7067 16.1212 18.186 15.6005L11.5864 9.0008L18.186 2.40114C18.7067 1.88044 18.7067 1.03622 18.186 0.515524C17.6653 -0.00517455 16.8211 -0.00517407 16.3004 0.515524L9.70076 7.11519L3.10109 0.515524Z" fill="#EAFBFF"/>
</svg>
