<svg width="292" height="165" viewBox="0 0 292 165" fill="none" xmlns="http://www.w3.org/2000/svg">
<g clip-path="url(#clip0_2349_3567)">
<mask id="mask0_2349_3567" style="mask-type:luminance" maskUnits="userSpaceOnUse" x="0" y="0" width="292" height="165">
<path d="M292 0H0V164.104H292V0Z" fill="white"/>
</mask>
<g mask="url(#mask0_2349_3567)">
<g opacity="0.501876">
<path d="M191.403 13.3809C195.695 13.3809 199.179 16.8623 199.179 21.1501C199.179 25.438 195.695 28.9194 191.403 28.9194C187.111 28.9194 183.627 25.438 183.627 21.1501C183.627 16.8623 187.111 13.3809 191.403 13.3809Z" fill="#03FF98"/>
<path d="M99.0918 25.4102C102.553 25.4102 105.363 28.2177 105.363 31.6757C105.363 35.1337 102.553 37.9413 99.0918 37.9413C95.6308 37.9413 92.8207 35.1337 92.8207 31.6757C92.8207 28.2177 95.6308 25.4102 99.0918 25.4102Z" fill="#03FF98"/>
<path d="M95.5801 116.135C99.5949 116.135 102.855 119.392 102.855 123.403C102.855 127.414 99.5949 130.671 95.5801 130.671C91.5653 130.671 88.3056 127.414 88.3056 123.403C88.3056 119.392 91.5653 116.135 95.5801 116.135Z" fill="#03FF98"/>
<path d="M200.433 109.117C203.618 109.117 206.203 111.7 206.203 114.881C206.203 118.063 203.618 120.646 200.433 120.646C197.249 120.646 194.664 118.063 194.664 114.881C194.664 111.7 197.249 109.117 200.433 109.117Z" fill="#03FF98"/>
<path d="M89.309 88.5664C90.9703 88.5664 92.3191 89.9141 92.3191 91.5739C92.3191 93.2337 90.9703 94.5813 89.309 94.5813C87.6477 94.5813 86.2988 93.2337 86.2988 91.5739C86.2988 89.9141 87.6477 88.5664 89.309 88.5664Z" fill="#03FF98"/>
<path d="M201.186 64.5078C203.124 64.5078 204.698 66.0801 204.698 68.0165C204.698 69.953 203.124 71.5252 201.186 71.5252C199.248 71.5252 197.674 69.953 197.674 68.0165C197.674 66.0801 199.248 64.5078 201.186 64.5078Z" fill="#03FF98"/>
<path d="M141.736 16.8887C143.535 16.8887 144.997 18.3486 144.997 20.1468C144.997 21.9449 143.535 23.4048 141.736 23.4048C139.936 23.4048 138.475 21.9449 138.475 20.1468C138.475 18.3486 139.936 16.8887 141.736 16.8887Z" fill="#03FF98"/>
<path d="M145.749 137.188C147.826 137.188 149.512 138.872 149.512 140.947C149.512 143.022 147.826 144.706 145.749 144.706C143.672 144.706 141.986 143.022 141.986 140.947C141.986 138.872 143.672 137.188 145.749 137.188Z" fill="#03FF98"/>
</g>
<g opacity="0.501876">
<path d="M213.711 65.5879L215.33 68.8647L218.949 69.3902L216.33 71.9409L216.948 75.5425L213.711 73.842L210.474 75.5425L211.092 71.9409L208.473 69.3902L212.092 68.8647L213.711 65.5879Z" fill="#FF8903"/>
<path d="M83.9632 66.4785L85.8758 70.3504L90.1525 70.9713L87.0578 73.9852L87.7884 78.2408L83.9632 76.2316L80.138 78.2408L80.8685 73.9852L77.7739 70.9713L82.0506 70.3504L83.9632 66.4785Z" fill="#FF8903"/>
<path d="M143.352 8.52539L144.58 11.0117L147.326 11.41L145.339 13.345L145.808 16.0775L143.352 14.7871L140.896 16.0775L141.366 13.345L139.378 11.41L142.124 11.0117L143.352 8.52539Z" fill="#FF8903"/>
<path d="M147.891 136.775L149.804 140.647L154.081 141.268L150.986 144.282L151.716 148.538L147.891 146.528L144.066 148.538L144.797 144.282L141.702 141.268L145.979 140.647L147.891 136.775Z" fill="#FF8903"/>
</g>
<g opacity="0.01">
<path d="M146 31.7793C173.504 31.7793 195.836 54.0908 195.836 81.5706C195.836 109.05 173.504 131.362 146 131.362C118.496 131.362 96.1643 109.05 96.1643 81.5706C96.1643 54.0908 118.496 31.7793 146 31.7793Z" fill="#3AF65A"/>
</g>
<g opacity="0.999999">
<path d="M146 50.4453C163.081 50.4453 176.949 64.3012 176.949 81.3666C176.949 98.4321 163.081 112.288 146 112.288C128.919 112.288 115.051 98.4321 115.051 81.3666C115.051 64.3012 128.919 50.4453 146 50.4453Z" fill="#00CF33"/>
</g>
<path d="M133.011 80.0497L141.881 88.9124L157.905 72.9023" stroke="white" stroke-width="11.7595" stroke-linecap="round"/>
</g>
</g>
<defs>
<clipPath id="clip0_2349_3567">
<rect width="292" height="164.104" fill="white"/>
</clipPath>
</defs>
</svg>
