<svg width="364" height="335" viewBox="0 0 364 335" fill="none" xmlns="http://www.w3.org/2000/svg">
<g clip-path="url(#clip0_736_4585)">
<mask id="mask0_736_4585" style="mask-type:luminance" maskUnits="userSpaceOnUse" x="0" y="0" width="364" height="335">
<path d="M364 0H0V335H364V0Z" fill="white"/>
</mask>
<g mask="url(#mask0_736_4585)">
<path d="M234.302 256.552C234.191 257.082 233.415 257.657 231.774 258.275C220.289 262.637 206.708 261.29 194.89 261.312C172.695 261.356 150.489 260.418 128.317 260.418C114.47 259.501 98.3617 257.182 112.064 254.001C127.663 250.379 144.58 250.909 160.345 250.489C174.635 250.103 188.937 250.39 203.216 251.328C205.633 251.494 234.867 253.615 234.302 256.552Z" fill="#EDEDED"/>
<path d="M176.702 257.108C180.67 256.854 204.537 258.036 217.134 255.166C224.22 253.551 226.067 250.239 227.549 247.984C227.563 247.963 230.198 243.845 231.366 240.645C232.535 237.446 233.237 234.647 233.444 234.18C234.568 231.646 236.323 222.259 236.55 216.696C236.565 216.34 237.26 209.359 237.29 209.003C237.998 200.583 238.342 192.101 238.504 185.244C238.71 176.533 238.624 170.445 238.624 170.445C238.624 170.445 141.584 170.388 137.757 169.636C137.757 169.636 139.5 187.985 139.686 201.027C139.872 214.069 140.156 225.325 140.156 225.325C140.156 225.325 140.242 233.396 137.987 239.314C136.73 243.335 135.438 248.857 130.09 251.278C125.008 253.462 121.067 253.466 121.067 253.466L136.738 255.501L176.702 257.108Z" fill="#E7B974"/>
<path d="M219.276 254.355C200.152 261.302 207.724 199.875 212.502 176.396C179.709 176.263 141.927 176.009 109.133 175.888C109.133 175.888 108.093 179.867 107.285 194.927C106.613 207.444 105.874 219.407 108.752 237.288C109.471 241.761 112.06 248.237 115.563 251.13C118.013 253.162 121.328 253.759 124.477 254.256C128.146 254.841 131.838 255.216 135.541 255.526C140.131 255.912 144.731 256.177 149.343 256.376C154.432 256.608 159.52 256.762 164.62 256.851C169.797 256.95 174.964 256.983 180.141 256.961C184.986 256.95 189.819 256.884 194.664 256.74C198.755 256.63 202.846 256.475 206.925 256.21C210.905 255.967 214.919 255.967 218.721 254.576L219.276 254.355Z" fill="#FAD090"/>
<path d="M138.024 169.709L238.17 170.905C238.17 170.905 237.801 208.179 236.23 215.633C235.491 226.769 233.643 233.028 232.535 236.801C231.257 241.15 229.209 244.9 227.638 247.201C225.791 250.054 222.372 253.551 218.677 254.379C214.372 255.344 211.767 252.525 210.27 250.514C208.145 247.661 207.221 242.047 206.759 236.709C206.094 229.019 207.775 210.48 207.498 214.253C207.683 209.651 210.362 188.668 210.362 188.668L212.256 176.473" stroke="#FEE4BD" stroke-width="3"/>
<mask id="mask1_736_4585" style="mask-type:luminance" maskUnits="userSpaceOnUse" x="123" y="74" width="115" height="90">
<path d="M123.291 74.8818H237.369V163.631H123.291V74.8818Z" fill="white"/>
</mask>
<g mask="url(#mask1_736_4585)">
<path d="M153.606 163.358C155.811 163.748 155.235 162.947 154.594 160.782C153.943 158.574 143.361 146.399 162.689 146.399C170.076 146.399 177.312 148.163 184.592 149.418C191.817 150.663 199.15 151.236 206.473 151.128C214.567 151.009 227.615 144.71 234.08 130.629C239.534 118.735 237.502 108.637 229.375 98.5497C225.019 93.1382 213.448 85.3781 207.136 82.445C198.129 78.2673 170.707 71.5462 153.606 77.1958C136.516 82.8455 127.531 98.5497 126.173 103.821C115.58 145.013 153.606 163.358 153.606 163.358Z" fill="#F0F0F0"/>
</g>
<path d="M246.667 135.752C245.206 135.099 243.359 135.225 241.768 135.752C238.236 136.911 237.404 138.163 231.881 143.047C219.639 153.865 208.963 153.848 212.318 156.205C218.491 160.548 248.499 152.815 251.052 141.934C250.338 139.411 249.028 136.806 246.667 135.752Z" fill="#F2F2F2"/>
<path d="M256.428 123.374C256.044 122.034 255.273 120.66 253.75 120.162C252.809 119.863 251.719 119.947 250.679 120.087C247.082 120.576 245.458 121.959 243.787 124.613C242.788 126.184 240.376 127.96 242.493 129.135C246.411 131.285 257.813 128.213 256.428 123.374Z" fill="#D8D8D8"/>
<path d="M122.758 143.245C123.818 143.139 125.023 143.577 125.988 144.208C128.158 145.609 128.534 146.527 131.482 150.559C131.598 150.716 131.715 150.872 131.83 151.026C132.117 151.405 132.404 151.772 132.691 152.126C138.86 159.735 144.924 161.628 142.531 162.337C137.85 163.744 119.152 153.173 118.997 146.113C119.821 144.736 121.059 143.417 122.758 143.245Z" fill="#D8D8D8"/>
<path d="M152.185 229.445C154.399 231.627 158.964 234.238 164.456 229.068" stroke="#9E8052" stroke-width="4" stroke-linecap="round"/>
<path d="M167.08 217.704C167.08 217.704 169.574 222.076 174.609 217.888" stroke="#9E8052" stroke-width="4" stroke-linecap="round"/>
<path d="M142.367 217.704C142.367 217.704 144.861 222.076 149.896 217.888" stroke="#9E8052" stroke-width="4" stroke-linecap="round" stroke-linejoin="round"/>
<path d="M134.888 217.901C136.42 217.901 137.663 219.722 137.663 221.964C137.663 224.206 136.42 226.027 134.888 226.027C133.357 226.027 132.113 224.206 132.113 221.964C132.113 219.722 133.357 217.901 134.888 217.901Z" fill="#FFD99D"/>
<path d="M182.082 218.592C183.614 218.592 184.857 220.412 184.857 222.654C184.857 224.897 183.614 226.717 182.082 226.717C180.551 226.717 179.307 224.897 179.307 222.654C179.307 220.412 180.551 218.592 182.082 218.592Z" fill="#FFD99D"/>
<mask id="mask2_736_4585" style="mask-type:luminance" maskUnits="userSpaceOnUse" x="0" y="-1" width="365" height="336">
<path d="M0.0603027 -0.00292969H364.06V334.997H0.0603027V-0.00292969Z" fill="white"/>
</mask>
<g mask="url(#mask2_736_4585)">
<path d="M200.353 102.062L203.771 104.823C203.771 104.823 195.364 111.357 186.864 125.346C189.082 117.799 200.353 102.062 200.353 102.062Z" fill="#DFDFDF"/>
<path d="M203.188 100.674C204.551 101.966 205.959 103.236 207.19 104.661C207.511 104.495 207.844 104.319 208.165 104.153C207.223 103.656 205.56 105.578 205.006 106.064C203.365 107.51 201.756 109.012 200.171 110.514C195.349 115.064 191.102 120.2 187.555 125.799C185.182 129.543 183.133 133.486 181.37 137.55C181.137 138.069 182.268 137.959 182.423 137.594C185.272 131.045 188.886 124.838 193.299 119.217C196.414 115.252 199.96 111.729 203.663 108.317C204.517 107.532 205.371 106.759 206.246 105.997C206.579 105.699 206.924 105.412 207.278 105.125C207.4 105.026 207.578 104.926 207.678 104.816C207.988 104.451 208.065 105.136 207.266 104.716C207.51 104.849 208.574 104.595 208.242 104.208C207.011 102.795 205.604 101.514 204.23 100.221C203.93 99.9453 202.855 100.376 203.188 100.674Z" fill="#808080"/>
<path d="M194.982 96.1982C194.982 96.1982 188.06 108.043 181.495 132.722C182.799 126.083 199.303 98.4982 199.303 98.4982L194.982 96.1982Z" fill="#DFDFDF"/>
<path d="M197.379 93.6657C199.252 94.8916 201.115 96.1506 202.911 97.4869C203.166 97.255 203.409 97.023 203.664 96.7911C203.01 96.5702 202.489 97.2218 202.123 97.6636C201.314 98.6023 200.605 99.6294 199.884 100.634C198.243 102.932 196.625 105.262 195.106 107.647C190.106 115.433 186.348 123.816 183.443 132.585C182.722 134.749 182.079 136.936 181.403 139.112C181.725 139.023 182.057 138.935 182.379 138.847C181.969 138.626 181.558 138.405 181.148 138.184C180.727 137.952 179.729 138.537 180.283 138.835C180.694 139.056 181.093 139.277 181.514 139.498C181.78 139.653 182.379 139.609 182.49 139.244C184.075 134.087 185.76 128.984 187.767 123.97C190.749 116.46 194.851 109.569 199.441 102.954C200.172 101.893 200.915 100.833 201.669 99.8061C202.057 99.2871 202.445 98.768 202.844 98.26C202.977 98.0943 203.143 97.9397 203.265 97.763C203.587 97.3102 203.664 97.7519 203.01 97.5421C203.376 97.6636 204.307 97.2329 203.775 96.8353C201.979 95.499 200.128 94.24 198.254 93.0141C197.833 92.749 196.846 93.3233 197.379 93.6657Z" fill="#808080"/>
<path d="M169.865 80.8018C159.333 90.0051 151.203 115.406 152.127 127.739C160.442 131.604 178.919 139.703 178.919 139.703C178.919 139.703 182.615 119.64 196.842 91.6616C182.984 86.6919 172.822 83.1946 169.865 80.8018Z" fill="white"/>
<path d="M169.865 80.8018C159.333 90.0051 151.203 115.406 152.127 127.739C160.442 131.604 178.919 139.703 178.919 139.703C178.919 139.703 182.615 119.64 196.842 91.6616C182.984 86.6919 172.822 83.1946 169.865 80.8018Z" stroke="#808080" stroke-width="2"/>
<path d="M185.724 115.904C182.886 123.767 180.58 131.8 178.563 139.906C178.895 139.781 179.239 139.671 179.583 139.564C172.332 136.306 165.104 132.868 157.687 130.029C156.634 129.632 155.592 129.227 154.55 128.803C153.962 128.56 152.565 128.211 152.377 127.6C152.266 127.224 152.443 126.598 152.477 126.208C152.51 125.744 152.543 125.273 152.588 124.809C152.676 123.812 152.776 122.832 152.898 121.86C153.131 119.972 153.43 118.091 153.785 116.217C155.836 105.412 159.927 94.8911 166.013 85.7025C167.122 84.0091 168.286 82.312 169.638 80.7953C169.306 80.8837 168.984 80.972 168.652 81.0604C176.412 85.2791 185.048 87.8634 193.319 90.9005C194.15 91.1987 194.97 91.5521 195.813 91.8282C196.223 91.9755 196.112 91.6994 196.001 92.1043C195.791 92.9253 195.236 93.7609 194.882 94.5377C193.418 97.7257 191.977 100.921 190.569 104.131C188.862 108.019 187.166 111.921 185.724 115.904ZM185.724 115.904C185.591 116.257 186.722 116.114 186.855 115.749M185.724 115.904C185.846 115.54 186.977 115.396 186.855 115.749M186.855 115.749C189.837 107.547 193.574 99.57 197.265 91.6662C197.31 91.5889 197.221 91.5006 197.154 91.4748C187.975 87.8745 178.252 85.2607 169.561 80.5192C169.272 80.3683 168.785 80.556 168.585 80.7843C164.583 85.3012 161.556 90.9226 159.051 96.3599C156.346 102.235 154.306 108.416 152.976 114.748C152.188 118.51 151.645 122.324 151.357 126.153C151.268 127.283 150.88 128.034 151.922 128.575C152.865 129.061 153.885 129.437 154.882 129.83C162.92 132.993 170.791 136.545 178.674 140.094C178.94 140.212 179.605 140.094 179.694 139.752C181.711 131.645 184.017 123.616 186.855 115.749Z" stroke="white" stroke-width="2"/>
<path d="M185.726 115.905C182.888 123.768 180.582 131.797 178.564 139.904C178.897 139.782 179.24 139.672 179.584 139.561C172.334 136.303 165.105 132.869 157.689 130.03C156.636 129.633 155.593 129.224 154.551 128.804C153.964 128.562 152.567 128.208 152.378 127.601C152.268 127.225 152.445 126.596 152.478 126.209C152.511 125.745 152.545 125.27 152.589 124.807C152.678 123.813 152.777 122.83 152.899 121.858C153.132 119.969 153.432 118.092 153.786 116.214C155.837 105.413 159.928 94.8885 166.015 85.6999C167.123 84.0102 168.287 82.3094 169.64 80.7964C169.307 80.8848 168.986 80.9731 168.653 81.0615C176.413 85.2803 185.05 87.8645 193.32 90.9016C194.152 91.1998 194.972 91.5532 195.814 91.8293C196.225 91.9729 196.114 91.6968 196.003 92.1054C195.792 92.9227 195.238 93.762 194.883 94.5351C193.42 97.7268 191.979 100.918 190.571 104.132C188.863 108.02 187.167 111.918 185.726 115.905C185.593 116.259 186.724 116.115 186.857 115.751C189.839 107.545 193.575 99.5711 197.267 91.6637C197.311 91.5864 197.222 91.498 197.156 91.4759C187.976 87.8756 178.254 85.2582 169.562 80.5203C169.274 80.3657 168.786 80.5534 168.587 80.7854C164.584 85.3023 161.558 90.9237 159.052 96.3573C156.347 102.233 154.307 108.417 152.977 114.746C152.19 118.512 151.647 122.322 151.358 126.154C151.27 127.28 150.882 128.031 151.924 128.573C152.866 129.058 153.886 129.434 154.884 129.832C162.921 132.99 170.793 136.546 178.675 140.091C178.941 140.213 179.606 140.091 179.695 139.749C181.713 131.643 184.019 123.614 186.857 115.751C186.979 115.397 185.848 115.541 185.726 115.905Z" fill="#808080"/>
<path d="M169.958 91.2939L176.24 93.6868L169.958 91.2939Z" fill="white"/>
<path d="M169.958 91.2939L176.24 93.6868" stroke="#595959" stroke-width="3" stroke-linecap="round"/>
<path d="M181.598 100.129C181.598 100.129 181.008 99.1584 180.899 98.0349C180.806 97.0822 181.112 96.0186 181.875 95.3431C182.609 94.6937 183.909 94.0823 185.2 94.1113C186.837 94.1482 188.506 95.0313 188.897 96.3555C189.821 99.4846 186.587 101.693 184 101.233" fill="white"/>
<path d="M181.598 100.129C181.598 100.129 181.008 99.1584 180.899 98.0349C180.806 97.0822 181.112 96.0186 181.875 95.3431C182.609 94.6937 183.909 94.0823 185.2 94.1113C186.837 94.1482 188.506 95.0313 188.897 96.3555C189.821 99.4846 186.587 101.693 184 101.233" stroke="#595959" stroke-width="3" stroke-linecap="round"/>
<path d="M164.876 99.209L183.076 106.664L164.876 99.209Z" fill="white"/>
<path d="M164.876 99.209L183.076 106.664" stroke="#595959" stroke-width="3" stroke-linecap="round"/>
<path d="M162.012 104.547L179.935 112.186L162.012 104.547Z" fill="white"/>
<path d="M162.012 104.547L179.935 112.186" stroke="#595959" stroke-width="3" stroke-linecap="round"/>
<path d="M160.442 110.621L178.457 118.536L160.442 110.621Z" fill="white"/>
<path d="M160.442 110.621L178.457 118.536" stroke="#595959" stroke-width="3" stroke-linecap="round"/>
<path d="M159.056 116.603L176.702 123.965L159.056 116.603Z" fill="white"/>
<path d="M159.056 116.603L176.702 123.965" stroke="#595959" stroke-width="3" stroke-linecap="round"/>
<path d="M167.001 128.199L175.593 131.973L167.001 128.199Z" fill="white"/>
<path d="M167.001 128.199L175.593 131.973" stroke="#595959" stroke-width="3" stroke-linecap="round"/>
</g>
</g>
</g>
<defs>
<clipPath id="clip0_736_4585">
<rect width="364" height="335" fill="white"/>
</clipPath>
</defs>
</svg>
